<svg width="9" height="16" viewBox="0 0 9 16" fill="none" xmlns="http://www.w3.org/2000/svg">
<path d="M5.47656 0.820312V3.125H4.25781V0.820312H5.47656ZM5.32812 13.5781V15.6797H4.10938V13.5781H5.32812ZM6.1875 11.0156C6.1875 10.7188 6.13281 10.4661 6.02344 10.2578C5.91927 10.0495 5.7474 9.86458 5.50781 9.70312C5.27344 9.54167 4.95573 9.38542 4.55469 9.23438C3.8776 8.97396 3.28125 8.69792 2.76562 8.40625C2.25521 8.10938 1.85677 7.74219 1.57031 7.30469C1.28385 6.86198 1.14062 6.30208 1.14062 5.625C1.14062 4.97917 1.29427 4.41927 1.60156 3.94531C1.90885 3.47135 2.33333 3.10677 2.875 2.85156C3.42188 2.59115 4.05729 2.46094 4.78125 2.46094C5.33333 2.46094 5.83333 2.54427 6.28125 2.71094C6.72917 2.8724 7.11458 3.11198 7.4375 3.42969C7.76042 3.74219 8.00781 4.125 8.17969 4.57812C8.35156 5.03125 8.4375 5.54948 8.4375 6.13281H6.19531C6.19531 5.82031 6.16146 5.54427 6.09375 5.30469C6.02604 5.0651 5.92708 4.86458 5.79688 4.70312C5.67188 4.54167 5.52083 4.42188 5.34375 4.34375C5.16667 4.26042 4.97135 4.21875 4.75781 4.21875C4.4401 4.21875 4.17969 4.28125 3.97656 4.40625C3.77344 4.53125 3.625 4.70052 3.53125 4.91406C3.44271 5.1224 3.39844 5.36198 3.39844 5.63281C3.39844 5.89844 3.44531 6.13021 3.53906 6.32812C3.63802 6.52604 3.80729 6.70833 4.04688 6.875C4.28646 7.03646 4.61458 7.20312 5.03125 7.375C5.70833 7.63542 6.30208 7.91667 6.8125 8.21875C7.32292 8.52083 7.72135 8.89062 8.00781 9.32812C8.29427 9.76562 8.4375 10.3229 8.4375 11C8.4375 11.6719 8.28125 12.2448 7.96875 12.7188C7.65625 13.1875 7.21875 13.5469 6.65625 13.7969C6.09375 14.0417 5.44271 14.1641 4.70312 14.1641C4.22396 14.1641 3.7474 14.1016 3.27344 13.9766C2.79948 13.8464 2.36979 13.638 1.98438 13.3516C1.59896 13.0651 1.29167 12.6849 1.0625 12.2109C0.833333 11.7318 0.71875 11.1432 0.71875 10.4453H2.96875C2.96875 10.8255 3.01823 11.1432 3.11719 11.3984C3.21615 11.6484 3.34635 11.849 3.50781 12C3.67448 12.1458 3.86198 12.25 4.07031 12.3125C4.27865 12.375 4.48958 12.4062 4.70312 12.4062C5.03646 12.4062 5.3099 12.3464 5.52344 12.2266C5.74219 12.1068 5.90625 11.9427 6.01562 11.7344C6.13021 11.5208 6.1875 11.2812 6.1875 11.0156Z" fill="#29B6F6"/>
</svg>
